<svg xmlns="http://www.w3.org/2000/svg" width="1280" height="640" viewBox="0 0 1280 640">
  <rect x="-10" y="-10" width="1300" height="660" fill="#f6accd"/>
  <rect x="90" y="70" width="1100" height="500" fill="#f7d5e3"/>
  <g>
    <path d="M184.239,284.087h22.07v8.789q11.522-11.425,25.977-11.426,16.6,0,25.879,10.449,8.005,8.888,8.007,29v58.3H244.1V326.079q0-14.062-3.906-19.433-3.808-5.469-13.867-5.469-10.938,0-15.528,7.226-4.492,7.13-4.492,24.9v45.9h-22.07Z" fill="#f23238"/>
    <path d="M289.415,330.962A47.266,47.266,0,0,1,304.161,295.9Q318.9,281.452,340.1,281.45q21.289,0,36.133,14.551,14.649,14.553,14.648,35.742,0,21.387-14.746,35.84-14.845,14.355-36.425,14.355-21.387,0-35.84-14.648Q289.414,352.839,289.415,330.962Zm22.46.391q0,14.259,7.618,22.558,7.812,8.4,20.605,8.4,12.891,0,20.606-8.3t7.714-22.168q0-13.865-7.714-22.168-7.815-8.4-20.606-8.4-12.6,0-20.41,8.4T311.875,331.353Z" fill="#f23238"/>
    <path d="M437.95,304.6V379.2H415.977V304.6H406.6V284.087h9.375V249.224H437.95v34.863h17.09V304.6Z" fill="#f23238"/>
    <path d="M558.36,336.821H490.2q.879,11.719,7.617,18.653,6.738,6.836,17.285,6.836,8.2,0,13.574-3.907,5.274-3.9,12.012-14.453L559.239,354.3a73.9,73.9,0,0,1-9.082,12.549,48.328,48.328,0,0,1-10.254,8.593,41.146,41.146,0,0,1-11.817,4.932,57.559,57.559,0,0,1-13.769,1.562q-21.291,0-34.18-13.671-12.891-13.77-12.89-36.524,0-22.558,12.5-36.523,12.6-13.77,33.4-13.77,21,0,33.2,13.379,12.108,13.283,12.11,36.817ZM535.8,318.853q-4.592-17.579-22.168-17.579a22.781,22.781,0,0,0-7.519,1.221,21.556,21.556,0,0,0-6.4,3.516,22.278,22.278,0,0,0-4.931,5.517,25.591,25.591,0,0,0-3.125,7.325Z" fill="#f23238"/>
    <path d="M604.356,214.263v80.859q13.183-13.671,29.883-13.672a41.117,41.117,0,0,1,32.031,14.356q12.792,14.259,12.792,35.547,0,21.972-12.89,36.328-12.793,14.259-32.324,14.257-16.5,0-29.492-12.695V379.2H582.383V214.263ZM656.6,332.329q0-13.671-7.422-22.266a23.782,23.782,0,0,0-18.847-8.789q-12.111,0-19.727,8.5-7.521,8.4-7.52,21.875,0,13.868,7.422,22.167,7.42,8.5,19.532,8.5a24.216,24.216,0,0,0,18.944-8.5Q656.6,345.223,656.6,332.329Z" fill="#f23238"/>
    <path d="M697.812,330.962A47.267,47.267,0,0,1,712.559,295.9Q727.3,281.452,748.5,281.45q21.288,0,36.133,14.551,14.649,14.553,14.648,35.742,0,21.387-14.746,35.84-14.844,14.355-36.426,14.355-21.386,0-35.839-14.648Q697.812,352.839,697.812,330.962Zm22.461.391q0,14.259,7.618,22.558,7.812,8.4,20.605,8.4,12.891,0,20.606-8.3t7.714-22.168q0-13.865-7.714-22.168-7.813-8.4-20.606-8.4-12.6,0-20.41,8.4T720.273,331.353Z" fill="#f23238"/>
    <path d="M818.027,330.962A47.266,47.266,0,0,1,832.773,295.9q14.747-14.451,35.938-14.453Q890,281.45,904.844,296q14.648,14.553,14.648,35.742,0,21.387-14.746,35.84Q889.9,381.938,868.32,381.938q-21.387,0-35.84-14.648Q818.028,352.839,818.027,330.962Zm22.461.391q0,14.259,7.617,22.558,7.812,8.4,20.606,8.4,12.891,0,20.605-8.3t7.715-22.168q0-13.865-7.715-22.168-7.814-8.4-20.605-8.4-12.6,0-20.41,8.4T840.488,331.353Z" fill="#f23238"/>
    <path d="M964.707,214.263V314.849l30.957-30.762h29.492l-41.308,39.941,44.336,55.176H999.668l-31.445-40.137-3.516,3.516V379.2H942.734V214.263Z" fill="#f23238"/>
    <path d="M1097.617,300.3l-18.164,9.668q-4.3-8.79-10.644-8.789a7.322,7.322,0,0,0-5.176,2,6.7,6.7,0,0,0-2.149,5.127q0,5.47,12.7,10.84,17.48,7.521,23.535,13.867t6.055,17.09a29.945,29.945,0,0,1-10.157,23.046,34.566,34.566,0,0,1-23.828,8.789q-23.927,0-33.887-23.339l18.75-8.692q3.906,6.837,5.957,8.692a13.588,13.588,0,0,0,9.571,3.711q11.133,0,11.133-10.157,0-5.859-8.594-10.937-3.321-1.661-6.641-3.223t-6.738-3.222q-9.572-4.687-13.477-9.375-4.98-5.955-4.98-15.333,0-12.4,8.5-20.507a29.8,29.8,0,0,1,21.094-8.106Q1088.73,281.45,1097.617,300.3Z" fill="#f23238"/>
  </g>
  <rect x="115" y="95" width="1050" height="450" fill="none" stroke="#f23238" stroke-miterlimit="10" stroke-width="15"/>
</svg>
